<svg width="39" height="39" viewBox="0 0 39 39" fill="none" xmlns="http://www.w3.org/2000/svg">
<g id="Account circle" clip-path="url(#clip0_174_268)">
<path id="Vector" d="M19.5 3.25C10.53 3.25 3.25 10.53 3.25 19.5C3.25 28.47 10.53 35.75 19.5 35.75C28.47 35.75 35.75 28.47 35.75 19.5C35.75 10.53 28.47 3.25 19.5 3.25ZM19.5 8.125C22.1975 8.125 24.375 10.3025 24.375 13C24.375 15.6975 22.1975 17.875 19.5 17.875C16.8025 17.875 14.625 15.6975 14.625 13C14.625 10.3025 16.8025 8.125 19.5 8.125ZM19.5 31.2C15.4375 31.2 11.8462 29.12 9.75 25.9675C9.79875 22.7337 16.25 20.9625 19.5 20.9625C22.7337 20.9625 29.2013 22.7337 29.25 25.9675C27.1537 29.12 23.5625 31.2 19.5 31.2Z" fill="white"/>
</g>
<defs>
<clipPath id="clip0_174_268">
<rect width="39" height="39" fill="white"/>
</clipPath>
</defs>
</svg>
