<svg width="32" height="32" viewBox="0 0 32 32" fill="none" xmlns="http://www.w3.org/2000/svg">
<g id="bell">
<path id="Vector" d="M24 10.6665C24 8.54477 23.1571 6.50994 21.6569 5.00965C20.1566 3.50936 18.1217 2.6665 16 2.6665C13.8783 2.6665 11.8434 3.50936 10.3431 5.00965C8.84286 6.50994 8 8.54477 8 10.6665C8 19.9998 4 22.6665 4 22.6665H28C28 22.6665 24 19.9998 24 10.6665Z" stroke="black" stroke-width="2" stroke-linecap="round" stroke-linejoin="round"/>
<path id="Vector_2" d="M18.3067 28C18.0723 28.4041 17.7358 28.7395 17.331 28.9727C16.9262 29.2059 16.4672 29.3286 16 29.3286C15.5329 29.3286 15.0739 29.2059 14.6691 28.9727C14.2642 28.7395 13.9278 28.4041 13.6934 28" stroke="black" stroke-width="2" stroke-linecap="round" stroke-linejoin="round"/>
</g>
</svg>
