<svg width="16" height="16" viewBox="0 0 16 16" fill="none" xmlns="http://www.w3.org/2000/svg">
<g id="clipboard">
<path id="Vector" d="M10.667 2.6665H12.0003C12.3539 2.6665 12.6931 2.80698 12.9431 3.05703C13.1932 3.30708 13.3337 3.64622 13.3337 3.99984V13.3332C13.3337 13.6868 13.1932 14.0259 12.9431 14.276C12.6931 14.526 12.3539 14.6665 12.0003 14.6665H4.00033C3.6467 14.6665 3.30756 14.526 3.05752 14.276C2.80747 14.0259 2.66699 13.6868 2.66699 13.3332V3.99984C2.66699 3.64622 2.80747 3.30708 3.05752 3.05703C3.30756 2.80698 3.6467 2.6665 4.00033 2.6665H5.33366" stroke="black" stroke-linecap="round" stroke-linejoin="round"/>
<path id="Vector_2" d="M9.99967 1.3335H5.99967C5.63148 1.3335 5.33301 1.63197 5.33301 2.00016V3.3335C5.33301 3.70169 5.63148 4.00016 5.99967 4.00016H9.99967C10.3679 4.00016 10.6663 3.70169 10.6663 3.3335V2.00016C10.6663 1.63197 10.3679 1.3335 9.99967 1.3335Z" stroke="black" stroke-linecap="round" stroke-linejoin="round"/>
</g>
</svg>
