<svg width="39" height="39" viewBox="0 0 39 39" fill="none" xmlns="http://www.w3.org/2000/svg">
<g id="mdi:bed">
<path id="Vector" d="M30.875 11.375H17.875V22.75H4.875V8.125H1.625V32.5H4.875V27.625H34.125V32.5H37.375V17.875C37.375 16.1511 36.6902 14.4978 35.4712 13.2788C34.2522 12.0598 32.5989 11.375 30.875 11.375ZM11.375 21.125C12.6679 21.125 13.9079 20.6114 14.8221 19.6971C15.7364 18.7829 16.25 17.5429 16.25 16.25C16.25 14.9571 15.7364 13.7171 14.8221 12.8029C13.9079 11.8886 12.6679 11.375 11.375 11.375C10.0821 11.375 8.84209 11.8886 7.92785 12.8029C7.01361 13.7171 6.5 14.9571 6.5 16.25C6.5 17.5429 7.01361 18.7829 7.92785 19.6971C8.84209 20.6114 10.0821 21.125 11.375 21.125Z" fill="white"/>
</g>
</svg>
