<svg width="13" height="14" viewBox="0 0 13 14" fill="none" xmlns="http://www.w3.org/2000/svg">
<g id="ph:first-aid-kit-light">
<path id="Vector" d="M10.9688 3.85156H8.83594V3.34375C8.83594 3.04745 8.71823 2.76329 8.50872 2.55378C8.29921 2.34427 8.01505 2.22656 7.71875 2.22656H5.28125C4.98495 2.22656 4.70079 2.34427 4.49128 2.55378C4.28177 2.76329 4.16406 3.04745 4.16406 3.34375V3.85156H2.03125C1.8427 3.85156 1.66187 3.92646 1.52854 4.05979C1.39521 4.19312 1.32031 4.37395 1.32031 4.5625V11.0625C1.32031 11.2511 1.39521 11.4319 1.52854 11.5652C1.66187 11.6985 1.8427 11.7734 2.03125 11.7734H10.9688C11.1573 11.7734 11.3381 11.6985 11.4715 11.5652C11.6048 11.4319 11.6797 11.2511 11.6797 11.0625V4.5625C11.6797 4.37395 11.6048 4.19312 11.4715 4.05979C11.3381 3.92646 11.1573 3.85156 10.9688 3.85156ZM4.77344 3.34375C4.77344 3.20907 4.82694 3.07991 4.92217 2.98467C5.01741 2.88944 5.14657 2.83594 5.28125 2.83594H7.71875C7.85343 2.83594 7.98259 2.88944 8.07783 2.98467C8.17306 3.07991 8.22656 3.20907 8.22656 3.34375V3.85156H4.77344V3.34375ZM11.0703 11.0625C11.0703 11.0894 11.0596 11.1153 11.0406 11.1343C11.0215 11.1534 10.9957 11.1641 10.9688 11.1641H2.03125C2.00431 11.1641 1.97848 11.1534 1.95943 11.1343C1.94039 11.1153 1.92969 11.0894 1.92969 11.0625V4.5625C1.92969 4.53556 1.94039 4.50973 1.95943 4.49068C1.97848 4.47164 2.00431 4.46094 2.03125 4.46094H10.9688C10.9957 4.46094 11.0215 4.47164 11.0406 4.49068C11.0596 4.50973 11.0703 4.53556 11.0703 4.5625V11.0625ZM8.02344 7.8125C8.02344 7.89331 7.99134 7.97081 7.9342 8.02795C7.87706 8.08509 7.79956 8.11719 7.71875 8.11719H6.80469V9.03125C6.80469 9.11206 6.77259 9.18956 6.71545 9.2467C6.65831 9.30384 6.58081 9.33594 6.5 9.33594C6.41919 9.33594 6.34169 9.30384 6.28455 9.2467C6.22741 9.18956 6.19531 9.11206 6.19531 9.03125V8.11719H5.28125C5.20044 8.11719 5.12294 8.08509 5.0658 8.02795C5.00866 7.97081 4.97656 7.89331 4.97656 7.8125C4.97656 7.73169 5.00866 7.65419 5.0658 7.59705C5.12294 7.53991 5.20044 7.50781 5.28125 7.50781H6.19531V6.59375C6.19531 6.51294 6.22741 6.43544 6.28455 6.3783C6.34169 6.32116 6.41919 6.28906 6.5 6.28906C6.58081 6.28906 6.65831 6.32116 6.71545 6.3783C6.77259 6.43544 6.80469 6.51294 6.80469 6.59375V7.50781H7.71875C7.79956 7.50781 7.87706 7.53991 7.9342 7.59705C7.99134 7.65419 8.02344 7.73169 8.02344 7.8125Z" fill="black"/>
</g>
</svg>
