<svg width="27" height="27" viewBox="0 0 27 27" fill="none" xmlns="http://www.w3.org/2000/svg">
<g id="ViewGridOutline">
<path id="Vector" d="M7 8.625C7 8.19402 7.1712 7.7807 7.47595 7.47595C7.7807 7.1712 8.19402 7 8.625 7H10.25C10.681 7 11.0943 7.1712 11.399 7.47595C11.7038 7.7807 11.875 8.19402 11.875 8.625V10.25C11.875 10.681 11.7038 11.0943 11.399 11.399C11.0943 11.7038 10.681 11.875 10.25 11.875H8.625C8.19402 11.875 7.7807 11.7038 7.47595 11.399C7.1712 11.0943 7 10.681 7 10.25V8.625ZM15.125 8.625C15.125 8.19402 15.2962 7.7807 15.601 7.47595C15.9057 7.1712 16.319 7 16.75 7H18.375C18.806 7 19.2193 7.1712 19.524 7.47595C19.8288 7.7807 20 8.19402 20 8.625V10.25C20 10.681 19.8288 11.0943 19.524 11.399C19.2193 11.7038 18.806 11.875 18.375 11.875H16.75C16.319 11.875 15.9057 11.7038 15.601 11.399C15.2962 11.0943 15.125 10.681 15.125 10.25V8.625ZM7 16.75C7 16.319 7.1712 15.9057 7.47595 15.601C7.7807 15.2962 8.19402 15.125 8.625 15.125H10.25C10.681 15.125 11.0943 15.2962 11.399 15.601C11.7038 15.9057 11.875 16.319 11.875 16.75V18.375C11.875 18.806 11.7038 19.2193 11.399 19.524C11.0943 19.8288 10.681 20 10.25 20H8.625C8.19402 20 7.7807 19.8288 7.47595 19.524C7.1712 19.2193 7 18.806 7 18.375V16.75ZM15.125 16.75C15.125 16.319 15.2962 15.9057 15.601 15.601C15.9057 15.2962 16.319 15.125 16.75 15.125H18.375C18.806 15.125 19.2193 15.2962 19.524 15.601C19.8288 15.9057 20 16.319 20 16.75V18.375C20 18.806 19.8288 19.2193 19.524 19.524C19.2193 19.8288 18.806 20 18.375 20H16.75C16.319 20 15.9057 19.8288 15.601 19.524C15.2962 19.2193 15.125 18.806 15.125 18.375V16.75Z" stroke="black" stroke-linecap="round" stroke-linejoin="round"/>
</g>
</svg>
